ISO-10303-21;
HEADER;
/* Generated by software containing ST-Developer
 * from STEP Tools, Inc. (www.steptools.com) 
 */

FILE_DESCRIPTION(
/* description */ (''),
/* implementation_level */ '2;1');

FILE_NAME(
/* name */ 'Avionics Bay.step',
/* time_stamp */ '2026-07-31T13:26:00+05:30',
/* author */ (''),
/* organization */ (''),
/* preprocessor_version */ 'ST-DEVELOPER v20.1',
/* originating_system */ 'Autodesk Translation Framework v15.8.0.0',
/* authorisation */ '');

FILE_SCHEMA (('AUTOMOTIVE_DESIGN { 1 0 10303 214 3 1 1 }'));
ENDSEC;

DATA;
#10=MECHANICAL_DESIGN_GEOMETRIC_PRESENTATION_REPRESENTATION('',(#13,#14),
#1067);
#11=SHAPE_REPRESENTATION_RELATIONSHIP('SRR','None',#1074,#12);
#12=ADVANCED_BREP_SHAPE_REPRESENTATION('',(#15,#16),#1066);
#13=STYLED_ITEM('',(#1083),#15);
#14=STYLED_ITEM('',(#1083),#16);
#15=MANIFOLD_SOLID_BREP('Body2',#578);
#16=MANIFOLD_SOLID_BREP('Body3',#579);
#17=FACE_BOUND('',#92,.T.);
#18=FACE_BOUND('',#97,.T.);
#19=FACE_BOUND('',#101,.T.);
#20=FACE_BOUND('',#104,.T.);
#21=FACE_BOUND('',#108,.T.);
#22=FACE_BOUND('',#126,.T.);
#23=PLANE('',#596);
#24=PLANE('',#600);
#25=PLANE('',#604);
#26=PLANE('',#608);
#27=PLANE('',#613);
#28=PLANE('',#614);
#29=PLANE('',#619);
#30=PLANE('',#628);
#31=PLANE('',#629);
#32=PLANE('',#635);
#33=PLANE('',#638);
#34=PLANE('',#644);
#35=PLANE('',#651);
#36=PLANE('',#652);
#37=PLANE('',#656);
#38=PLANE('',#667);
#39=PLANE('',#668);
#40=PLANE('',#672);
#41=PLANE('',#682);
#42=PLANE('',#685);
#43=FACE_OUTER_BOUND('',#82,.T.);
#44=FACE_OUTER_BOUND('',#83,.T.);
#45=FACE_OUTER_BOUND('',#84,.T.);
#46=FACE_OUTER_BOUND('',#85,.T.);
#47=FACE_OUTER_BOUND('',#86,.T.);
#48=FACE_OUTER_BOUND('',#87,.T.);
#49=FACE_OUTER_BOUND('',#88,.T.);
#50=FACE_OUTER_BOUND('',#89,.T.);
#51=FACE_OUTER_BOUND('',#90,.T.);
#52=FACE_OUTER_BOUND('',#91,.T.);
#53=FACE_OUTER_BOUND('',#93,.T.);
#54=FACE_OUTER_BOUND('',#94,.T.);
#55=FACE_OUTER_BOUND('',#95,.T.);
#56=FACE_OUTER_BOUND('',#96,.T.);
#57=FACE_OUTER_BOUND('',#98,.T.);
#58=FACE_OUTER_BOUND('',#99,.T.);
#59=FACE_OUTER_BOUND('',#100,.T.);
#60=FACE_OUTER_BOUND('',#102,.T.);
#61=FACE_OUTER_BOUND('',#103,.T.);
#62=FACE_OUTER_BOUND('',#105,.T.);
#63=FACE_OUTER_BOUND('',#106,.T.);
#64=FACE_OUTER_BOUND('',#107,.T.);
#65=FACE_OUTER_BOUND('',#109,.T.);
#66=FACE_OUTER_BOUND('',#110,.T.);
#67=FACE_OUTER_BOUND('',#111,.T.);
#68=FACE_OUTER_BOUND('',#112,.T.);
#69=FACE_OUTER_BOUND('',#113,.T.);
#70=FACE_OUTER_BOUND('',#114,.T.);
#71=FACE_OUTER_BOUND('',#115,.T.);
#72=FACE_OUTER_BOUND('',#116,.T.);
#73=FACE_OUTER_BOUND('',#117,.T.);
#74=FACE_OUTER_BOUND('',#118,.T.);
#75=FACE_OUTER_BOUND('',#119,.T.);
#76=FACE_OUTER_BOUND('',#120,.T.);
#77=FACE_OUTER_BOUND('',#121,.T.);
#78=FACE_OUTER_BOUND('',#122,.T.);
#79=FACE_OUTER_BOUND('',#123,.T.);
#80=FACE_OUTER_BOUND('',#124,.T.);
#81=FACE_OUTER_BOUND('',#125,.T.);
#82=EDGE_LOOP('',(#358,#359,#360,#361));
#83=EDGE_LOOP('',(#362));
#84=EDGE_LOOP('',(#363,#364,#365,#366));
#85=EDGE_LOOP('',(#367));
#86=EDGE_LOOP('',(#368,#369,#370,#371));
#87=EDGE_LOOP('',(#372));
#88=EDGE_LOOP('',(#373,#374,#375,#376));
#89=EDGE_LOOP('',(#377));
#90=EDGE_LOOP('',(#378,#379,#380,#381,#382));
#91=EDGE_LOOP('',(#383));
#92=EDGE_LOOP('',(#384));
#93=EDGE_LOOP('',(#385,#386,#387,#388,#389));
#94=EDGE_LOOP('',(#390,#391,#392,#393,#394,#395));
#95=EDGE_LOOP('',(#396,#397,#398,#399,#400));
#96=EDGE_LOOP('',(#401));
#97=EDGE_LOOP('',(#402));
#98=EDGE_LOOP('',(#403,#404,#405,#406));
#99=EDGE_LOOP('',(#407,#408,#409,#410,#411,#412));
#100=EDGE_LOOP('',(#413));
#101=EDGE_LOOP('',(#414));
#102=EDGE_LOOP('',(#415,#416,#417,#418));
#103=EDGE_LOOP('',(#419,#420));
#104=EDGE_LOOP('',(#421));
#105=EDGE_LOOP('',(#422,#423,#424,#425,#426,#427));
#106=EDGE_LOOP('',(#428,#429,#430,#431,#432,#433,#434,#435,#436,#437));
#107=EDGE_LOOP('',(#438));
#108=EDGE_LOOP('',(#439));
#109=EDGE_LOOP('',(#440,#441,#442,#443));
#110=EDGE_LOOP('',(#444,#445,#446,#447));
#111=EDGE_LOOP('',(#448,#449));
#112=EDGE_LOOP('',(#450,#451,#452,#453));
#113=EDGE_LOOP('',(#454,#455,#456,#457,#458,#459));
#114=EDGE_LOOP('',(#460,#461,#462,#463));
#115=EDGE_LOOP('',(#464,#465,#466,#467));
#116=EDGE_LOOP('',(#468,#469));
#117=EDGE_LOOP('',(#470,#471,#472,#473));
#118=EDGE_LOOP('',(#474,#475));
#119=EDGE_LOOP('',(#476,#477,#478,#479));
#120=EDGE_LOOP('',(#480,#481,#482,#483,#484,#485,#486,#487,#488,#489,#490,
#491,#492,#493,#494,#495));
#121=EDGE_LOOP('',(#496,#497,#498,#499));
#122=EDGE_LOOP('',(#500,#501,#502,#503));
#123=EDGE_LOOP('',(#504,#505));
#124=EDGE_LOOP('',(#506,#507,#508,#509,#510,#511,#512,#513,#514,#515,#516,
#517));
#125=EDGE_LOOP('',(#518));
#126=EDGE_LOOP('',(#519));
#127=LINE('',#906,#154);
#128=LINE('',#913,#155);
#129=LINE('',#920,#156);
#130=LINE('',#927,#157);
#131=LINE('',#934,#158);
#132=LINE('',#960,#159);
#133=LINE('',#970,#160);
#134=LINE('',#974,#161);
#135=LINE('',#977,#162);
#136=LINE('',#982,#163);
#137=LINE('',#986,#164);
#138=LINE('',#992,#165);
#139=LINE('',#996,#166);
#140=LINE('',#999,#167);
#141=LINE('',#1001,#168);
#142=LINE('',#1022,#169);
#143=LINE('',#1025,#170);
#144=LINE('',#1027,#171);
#145=LINE('',#1029,#172);
#146=LINE('',#1042,#173);
#147=LINE('',#1043,#174);
#148=LINE('',#1046,#175);
#149=LINE('',#1049,#176);
#150=LINE('',#1050,#177);
#151=LINE('',#1053,#178);
#152=LINE('',#1056,#179);
#153=LINE('',#1061,#180);
#154=VECTOR('',#692,1.);
#155=VECTOR('',#701,1.);
#156=VECTOR('',#710,1.);
#157=VECTOR('',#719,0.999999977648258);
#158=VECTOR('',#728,1.24999997206032);
#159=VECTOR('',#761,1.24999935738742);
#160=VECTOR('',#778,1.24999997206032);
#161=VECTOR('',#783,10.);
#162=VECTOR('',#786,10.);
#163=VECTOR('',#793,27.5);
#164=VECTOR('',#798,30.);
#165=VECTOR('',#805,10.);
#166=VECTOR('',#808,10.);
#167=VECTOR('',#813,10.);
#168=VECTOR('',#816,10.);
#169=VECTOR('',#843,10.);
#170=VECTOR('',#846,10.);
#171=VECTOR('',#849,10.);
#172=VECTOR('',#852,10.);
#173=VECTOR('',#873,10.);
#174=VECTOR('',#874,10.);
#175=VECTOR('',#877,30.0000004470348);
#176=VECTOR('',#880,10.);
#177=VECTOR('',#881,10.);
#178=VECTOR('',#884,10.);
#179=VECTOR('',#889,10.);
#180=VECTOR('',#896,27.5);
#181=CIRCLE('',#594,1.);
#182=CIRCLE('',#595,1.);
#183=CIRCLE('',#598,1.);
#184=CIRCLE('',#599,1.);
#185=CIRCLE('',#602,1.);
#186=CIRCLE('',#603,1.);
#187=CIRCLE('',#606,0.999999977648258);
#188=CIRCLE('',#607,0.999999977648258);
#189=CIRCLE('',#610,1.24999997206032);
#190=CIRCLE('',#611,1.24999997206032);
#191=CIRCLE('',#612,1.24999997206032);
#192=CIRCLE('',#615,27.5);
#193=CIRCLE('',#616,1.24999997206032);
#194=CIRCLE('',#617,1.24999997206032);
#195=CIRCLE('',#618,30.);
#196=CIRCLE('',#620,30.);
#197=CIRCLE('',#621,1.25);
#198=CIRCLE('',#622,30.);
#199=CIRCLE('',#623,1.24999935738742);
#200=CIRCLE('',#624,27.5);
#201=CIRCLE('',#626,1.24999935738742);
#202=CIRCLE('',#627,1.24999935738742);
#203=CIRCLE('',#630,30.);
#204=CIRCLE('',#631,1.24999997206032);
#205=CIRCLE('',#632,27.5);
#206=CIRCLE('',#634,1.24999997206032);
#207=CIRCLE('',#637,1.25);
#208=CIRCLE('',#639,30.);
#209=CIRCLE('',#641,27.5);
#210=CIRCLE('',#643,30.);
#211=CIRCLE('',#646,1.24999997206032);
#212=CIRCLE('',#647,1.24999997206032);
#213=CIRCLE('',#649,1.24999997206032);
#214=CIRCLE('',#650,1.24999997206032);
#215=CIRCLE('',#653,30.0000004470348);
#216=CIRCLE('',#654,1.24999997206032);
#217=CIRCLE('',#655,27.5);
#218=CIRCLE('',#657,27.5);
#219=CIRCLE('',#658,1.24999997206032);
#220=CIRCLE('',#659,30.0000004470348);
#221=CIRCLE('',#660,1.25);
#222=CIRCLE('',#661,30.0000004470348);
#223=CIRCLE('',#663,1.24999997206032);
#224=CIRCLE('',#665,1.24999997206032);
#225=CIRCLE('',#666,1.24999997206032);
#226=CIRCLE('',#669,27.5);
#227=CIRCLE('',#670,1.24999997206032);
#228=CIRCLE('',#671,30.0000004470348);
#229=CIRCLE('',#673,30.0000004470348);
#230=CIRCLE('',#674,1.25);
#231=CIRCLE('',#677,30.0000004470348);
#232=CIRCLE('',#679,1.24999997206032);
#233=CIRCLE('',#681,1.24999997206032);
#234=CIRCLE('',#684,27.5);
#235=VERTEX_POINT('',#903);
#236=VERTEX_POINT('',#905);
#237=VERTEX_POINT('',#910);
#238=VERTEX_POINT('',#912);
#239=VERTEX_POINT('',#917);
#240=VERTEX_POINT('',#919);
#241=VERTEX_POINT('',#924);
#242=VERTEX_POINT('',#926);
#243=VERTEX_POINT('',#931);
#244=VERTEX_POINT('',#933);
#245=VERTEX_POINT('',#935);
#246=VERTEX_POINT('',#940);
#247=VERTEX_POINT('',#942);
#248=VERTEX_POINT('',#944);
#249=VERTEX_POINT('',#948);
#250=VERTEX_POINT('',#950);
#251=VERTEX_POINT('',#952);
#252=VERTEX_POINT('',#954);
#253=VERTEX_POINT('',#958);
#254=VERTEX_POINT('',#968);
#255=VERTEX_POINT('',#973);
#256=VERTEX_POINT('',#975);
#257=VERTEX_POINT('',#981);
#258=VERTEX_POINT('',#985);
#259=VERTEX_POINT('',#990);
#260=VERTEX_POINT('',#991);
#261=VERTEX_POINT('',#993);
#262=VERTEX_POINT('',#995);
#263=VERTEX_POINT('',#1005);
#264=VERTEX_POINT('',#1007);
#265=VERTEX_POINT('',#1011);
#266=VERTEX_POINT('',#1013);
#267=VERTEX_POINT('',#1015);
#268=VERTEX_POINT('',#1017);
#269=VERTEX_POINT('',#1021);
#270=VERTEX_POINT('',#1023);
#271=VERTEX_POINT('',#1037);
#272=VERTEX_POINT('',#1038);
#273=VERTEX_POINT('',#1045);
#274=VERTEX_POINT('',#1048);
#275=VERTEX_POINT('',#1052);
#276=VERTEX_POINT('',#1060);
#277=EDGE_CURVE('',#235,#235,#181,.T.);
#278=EDGE_CURVE('',#235,#236,#127,.T.);
#279=EDGE_CURVE('',#236,#236,#182,.T.);
#280=EDGE_CURVE('',#237,#237,#183,.T.);
#281=EDGE_CURVE('',#237,#238,#128,.T.);
#282=EDGE_CURVE('',#238,#238,#184,.T.);
#283=EDGE_CURVE('',#239,#239,#185,.T.);
#284=EDGE_CURVE('',#239,#240,#129,.T.);
#285=EDGE_CURVE('',#240,#240,#186,.T.);
#286=EDGE_CURVE('',#241,#241,#187,.T.);
#287=EDGE_CURVE('',#241,#242,#130,.T.);
#288=EDGE_CURVE('',#242,#242,#188,.T.);
#289=EDGE_CURVE('',#243,#243,#189,.T.);
#290=EDGE_CURVE('',#243,#244,#131,.T.);
#291=EDGE_CURVE('',#245,#244,#190,.T.);
#292=EDGE_CURVE('',#244,#245,#191,.T.);
#293=EDGE_CURVE('',#245,#246,#192,.T.);
#294=EDGE_CURVE('',#246,#247,#193,.T.);
#295=EDGE_CURVE('',#247,#248,#194,.T.);
#296=EDGE_CURVE('',#248,#244,#195,.T.);
#297=EDGE_CURVE('',#244,#249,#196,.T.);
#298=EDGE_CURVE('',#249,#250,#197,.T.);
#299=EDGE_CURVE('',#250,#251,#198,.T.);
#300=EDGE_CURVE('',#251,#252,#199,.T.);
#301=EDGE_CURVE('',#252,#245,#200,.T.);
#302=EDGE_CURVE('',#253,#253,#201,.T.);
#303=EDGE_CURVE('',#253,#252,#132,.T.);
#304=EDGE_CURVE('',#252,#251,#202,.T.);
#305=EDGE_CURVE('',#251,#248,#203,.T.);
#306=EDGE_CURVE('',#248,#246,#204,.T.);
#307=EDGE_CURVE('',#246,#252,#205,.T.);
#308=EDGE_CURVE('',#254,#254,#206,.T.);
#309=EDGE_CURVE('',#254,#247,#133,.T.);
#310=EDGE_CURVE('',#249,#255,#134,.T.);
#311=EDGE_CURVE('',#256,#255,#207,.T.);
#312=EDGE_CURVE('',#250,#256,#135,.T.);
#313=EDGE_CURVE('',#255,#256,#208,.T.);
#314=EDGE_CURVE('',#245,#257,#136,.T.);
#315=EDGE_CURVE('',#257,#257,#209,.T.);
#316=EDGE_CURVE('',#251,#258,#137,.T.);
#317=EDGE_CURVE('',#258,#258,#210,.T.);
#318=EDGE_CURVE('',#259,#260,#138,.T.);
#319=EDGE_CURVE('',#260,#261,#211,.T.);
#320=EDGE_CURVE('',#262,#261,#139,.T.);
#321=EDGE_CURVE('',#259,#262,#212,.T.);
#322=EDGE_CURVE('',#259,#260,#140,.T.);
#323=EDGE_CURVE('',#262,#259,#213,.T.);
#324=EDGE_CURVE('',#262,#261,#141,.T.);
#325=EDGE_CURVE('',#261,#260,#214,.T.);
#326=EDGE_CURVE('',#259,#263,#215,.T.);
#327=EDGE_CURVE('',#263,#264,#216,.T.);
#328=EDGE_CURVE('',#264,#262,#217,.T.);
#329=EDGE_CURVE('',#262,#265,#218,.T.);
#330=EDGE_CURVE('',#265,#266,#219,.T.);
#331=EDGE_CURVE('',#266,#267,#220,.T.);
#332=EDGE_CURVE('',#267,#268,#221,.T.);
#333=EDGE_CURVE('',#268,#259,#222,.T.);
#334=EDGE_CURVE('',#265,#269,#142,.T.);
#335=EDGE_CURVE('',#269,#270,#223,.T.);
#336=EDGE_CURVE('',#266,#270,#143,.T.);
#337=EDGE_CURVE('',#265,#269,#144,.T.);
#338=EDGE_CURVE('',#266,#265,#224,.T.);
#339=EDGE_CURVE('',#266,#270,#145,.T.);
#340=EDGE_CURVE('',#270,#269,#225,.T.);
#341=EDGE_CURVE('',#265,#264,#226,.T.);
#342=EDGE_CURVE('',#264,#263,#227,.T.);
#343=EDGE_CURVE('',#263,#266,#228,.T.);
#344=EDGE_CURVE('',#271,#272,#229,.T.);
#345=EDGE_CURVE('',#272,#271,#230,.T.);
#346=EDGE_CURVE('',#268,#271,#146,.T.);
#347=EDGE_CURVE('',#272,#267,#147,.T.);
#348=EDGE_CURVE('',#270,#273,#148,.T.);
#349=EDGE_CURVE('',#273,#273,#231,.T.);
#350=EDGE_CURVE('',#263,#274,#149,.T.);
#351=EDGE_CURVE('',#263,#274,#150,.T.);
#352=EDGE_CURVE('',#264,#275,#151,.T.);
#353=EDGE_CURVE('',#275,#274,#232,.T.);
#354=EDGE_CURVE('',#264,#275,#152,.T.);
#355=EDGE_CURVE('',#274,#275,#233,.T.);
#356=EDGE_CURVE('',#275,#276,#153,.T.);
#357=EDGE_CURVE('',#276,#276,#234,.T.);
#358=ORIENTED_EDGE('',*,*,#277,.F.);
#359=ORIENTED_EDGE('',*,*,#278,.T.);
#360=ORIENTED_EDGE('',*,*,#279,.F.);
#361=ORIENTED_EDGE('',*,*,#278,.F.);
#362=ORIENTED_EDGE('',*,*,#277,.T.);
#363=ORIENTED_EDGE('',*,*,#280,.F.);
#364=ORIENTED_EDGE('',*,*,#281,.T.);
#365=ORIENTED_EDGE('',*,*,#282,.F.);
#366=ORIENTED_EDGE('',*,*,#281,.F.);
#367=ORIENTED_EDGE('',*,*,#280,.T.);
#368=ORIENTED_EDGE('',*,*,#283,.F.);
#369=ORIENTED_EDGE('',*,*,#284,.T.);
#370=ORIENTED_EDGE('',*,*,#285,.F.);
#371=ORIENTED_EDGE('',*,*,#284,.F.);
#372=ORIENTED_EDGE('',*,*,#283,.T.);
#373=ORIENTED_EDGE('',*,*,#286,.F.);
#374=ORIENTED_EDGE('',*,*,#287,.T.);
#375=ORIENTED_EDGE('',*,*,#288,.F.);
#376=ORIENTED_EDGE('',*,*,#287,.F.);
#377=ORIENTED_EDGE('',*,*,#286,.T.);
#378=ORIENTED_EDGE('',*,*,#289,.F.);
#379=ORIENTED_EDGE('',*,*,#290,.T.);
#380=ORIENTED_EDGE('',*,*,#291,.F.);
#381=ORIENTED_EDGE('',*,*,#292,.F.);
#382=ORIENTED_EDGE('',*,*,#290,.F.);
#383=ORIENTED_EDGE('',*,*,#289,.T.);
#384=ORIENTED_EDGE('',*,*,#288,.T.);
#385=ORIENTED_EDGE('',*,*,#292,.T.);
#386=ORIENTED_EDGE('',*,*,#293,.T.);
#387=ORIENTED_EDGE('',*,*,#294,.T.);
#388=ORIENTED_EDGE('',*,*,#295,.T.);
#389=ORIENTED_EDGE('',*,*,#296,.T.);
#390=ORIENTED_EDGE('',*,*,#291,.T.);
#391=ORIENTED_EDGE('',*,*,#297,.T.);
#392=ORIENTED_EDGE('',*,*,#298,.T.);
#393=ORIENTED_EDGE('',*,*,#299,.T.);
#394=ORIENTED_EDGE('',*,*,#300,.T.);
#395=ORIENTED_EDGE('',*,*,#301,.T.);
#396=ORIENTED_EDGE('',*,*,#302,.F.);
#397=ORIENTED_EDGE('',*,*,#303,.T.);
#398=ORIENTED_EDGE('',*,*,#300,.F.);
#399=ORIENTED_EDGE('',*,*,#304,.F.);
#400=ORIENTED_EDGE('',*,*,#303,.F.);
#401=ORIENTED_EDGE('',*,*,#302,.T.);
#402=ORIENTED_EDGE('',*,*,#279,.T.);
#403=ORIENTED_EDGE('',*,*,#304,.T.);
#404=ORIENTED_EDGE('',*,*,#305,.T.);
#405=ORIENTED_EDGE('',*,*,#306,.T.);
#406=ORIENTED_EDGE('',*,*,#307,.T.);
#407=ORIENTED_EDGE('',*,*,#308,.F.);
#408=ORIENTED_EDGE('',*,*,#309,.T.);
#409=ORIENTED_EDGE('',*,*,#294,.F.);
#410=ORIENTED_EDGE('',*,*,#306,.F.);
#411=ORIENTED_EDGE('',*,*,#295,.F.);
#412=ORIENTED_EDGE('',*,*,#309,.F.);
#413=ORIENTED_EDGE('',*,*,#308,.T.);
#414=ORIENTED_EDGE('',*,*,#285,.T.);
#415=ORIENTED_EDGE('',*,*,#298,.F.);
#416=ORIENTED_EDGE('',*,*,#310,.T.);
#417=ORIENTED_EDGE('',*,*,#311,.F.);
#418=ORIENTED_EDGE('',*,*,#312,.F.);
#419=ORIENTED_EDGE('',*,*,#311,.T.);
#420=ORIENTED_EDGE('',*,*,#313,.T.);
#421=ORIENTED_EDGE('',*,*,#282,.T.);
#422=ORIENTED_EDGE('',*,*,#307,.F.);
#423=ORIENTED_EDGE('',*,*,#293,.F.);
#424=ORIENTED_EDGE('',*,*,#314,.T.);
#425=ORIENTED_EDGE('',*,*,#315,.F.);
#426=ORIENTED_EDGE('',*,*,#314,.F.);
#427=ORIENTED_EDGE('',*,*,#301,.F.);
#428=ORIENTED_EDGE('',*,*,#299,.F.);
#429=ORIENTED_EDGE('',*,*,#312,.T.);
#430=ORIENTED_EDGE('',*,*,#313,.F.);
#431=ORIENTED_EDGE('',*,*,#310,.F.);
#432=ORIENTED_EDGE('',*,*,#297,.F.);
#433=ORIENTED_EDGE('',*,*,#296,.F.);
#434=ORIENTED_EDGE('',*,*,#305,.F.);
#435=ORIENTED_EDGE('',*,*,#316,.T.);
#436=ORIENTED_EDGE('',*,*,#317,.T.);
#437=ORIENTED_EDGE('',*,*,#316,.F.);
#438=ORIENTED_EDGE('',*,*,#317,.F.);
#439=ORIENTED_EDGE('',*,*,#315,.T.);
#440=ORIENTED_EDGE('',*,*,#318,.T.);
#441=ORIENTED_EDGE('',*,*,#319,.T.);
#442=ORIENTED_EDGE('',*,*,#320,.F.);
#443=ORIENTED_EDGE('',*,*,#321,.F.);
#444=ORIENTED_EDGE('',*,*,#322,.F.);
#445=ORIENTED_EDGE('',*,*,#323,.F.);
#446=ORIENTED_EDGE('',*,*,#324,.T.);
#447=ORIENTED_EDGE('',*,*,#325,.T.);
#448=ORIENTED_EDGE('',*,*,#319,.F.);
#449=ORIENTED_EDGE('',*,*,#325,.F.);
#450=ORIENTED_EDGE('',*,*,#323,.T.);
#451=ORIENTED_EDGE('',*,*,#326,.T.);
#452=ORIENTED_EDGE('',*,*,#327,.T.);
#453=ORIENTED_EDGE('',*,*,#328,.T.);
#454=ORIENTED_EDGE('',*,*,#321,.T.);
#455=ORIENTED_EDGE('',*,*,#329,.T.);
#456=ORIENTED_EDGE('',*,*,#330,.T.);
#457=ORIENTED_EDGE('',*,*,#331,.T.);
#458=ORIENTED_EDGE('',*,*,#332,.T.);
#459=ORIENTED_EDGE('',*,*,#333,.T.);
#460=ORIENTED_EDGE('',*,*,#334,.T.);
#461=ORIENTED_EDGE('',*,*,#335,.T.);
#462=ORIENTED_EDGE('',*,*,#336,.F.);
#463=ORIENTED_EDGE('',*,*,#330,.F.);
#464=ORIENTED_EDGE('',*,*,#337,.F.);
#465=ORIENTED_EDGE('',*,*,#338,.F.);
#466=ORIENTED_EDGE('',*,*,#339,.T.);
#467=ORIENTED_EDGE('',*,*,#340,.T.);
#468=ORIENTED_EDGE('',*,*,#335,.F.);
#469=ORIENTED_EDGE('',*,*,#340,.F.);
#470=ORIENTED_EDGE('',*,*,#338,.T.);
#471=ORIENTED_EDGE('',*,*,#341,.T.);
#472=ORIENTED_EDGE('',*,*,#342,.T.);
#473=ORIENTED_EDGE('',*,*,#343,.T.);
#474=ORIENTED_EDGE('',*,*,#344,.F.);
#475=ORIENTED_EDGE('',*,*,#345,.F.);
#476=ORIENTED_EDGE('',*,*,#346,.F.);
#477=ORIENTED_EDGE('',*,*,#332,.F.);
#478=ORIENTED_EDGE('',*,*,#347,.F.);
#479=ORIENTED_EDGE('',*,*,#345,.T.);
#480=ORIENTED_EDGE('',*,*,#346,.T.);
#481=ORIENTED_EDGE('',*,*,#344,.T.);
#482=ORIENTED_EDGE('',*,*,#347,.T.);
#483=ORIENTED_EDGE('',*,*,#331,.F.);
#484=ORIENTED_EDGE('',*,*,#336,.T.);
#485=ORIENTED_EDGE('',*,*,#348,.T.);
#486=ORIENTED_EDGE('',*,*,#349,.T.);
#487=ORIENTED_EDGE('',*,*,#348,.F.);
#488=ORIENTED_EDGE('',*,*,#339,.F.);
#489=ORIENTED_EDGE('',*,*,#343,.F.);
#490=ORIENTED_EDGE('',*,*,#350,.T.);
#491=ORIENTED_EDGE('',*,*,#351,.F.);
#492=ORIENTED_EDGE('',*,*,#326,.F.);
#493=ORIENTED_EDGE('',*,*,#322,.T.);
#494=ORIENTED_EDGE('',*,*,#318,.F.);
#495=ORIENTED_EDGE('',*,*,#333,.F.);
#496=ORIENTED_EDGE('',*,*,#352,.T.);
#497=ORIENTED_EDGE('',*,*,#353,.T.);
#498=ORIENTED_EDGE('',*,*,#350,.F.);
#499=ORIENTED_EDGE('',*,*,#342,.F.);
#500=ORIENTED_EDGE('',*,*,#354,.F.);
#501=ORIENTED_EDGE('',*,*,#327,.F.);
#502=ORIENTED_EDGE('',*,*,#351,.T.);
#503=ORIENTED_EDGE('',*,*,#355,.T.);
#504=ORIENTED_EDGE('',*,*,#353,.F.);
#505=ORIENTED_EDGE('',*,*,#355,.F.);
#506=ORIENTED_EDGE('',*,*,#328,.F.);
#507=ORIENTED_EDGE('',*,*,#354,.T.);
#508=ORIENTED_EDGE('',*,*,#356,.T.);
#509=ORIENTED_EDGE('',*,*,#357,.F.);
#510=ORIENTED_EDGE('',*,*,#356,.F.);
#511=ORIENTED_EDGE('',*,*,#352,.F.);
#512=ORIENTED_EDGE('',*,*,#341,.F.);
#513=ORIENTED_EDGE('',*,*,#337,.T.);
#514=ORIENTED_EDGE('',*,*,#334,.F.);
#515=ORIENTED_EDGE('',*,*,#329,.F.);
#516=ORIENTED_EDGE('',*,*,#320,.T.);
#517=ORIENTED_EDGE('',*,*,#324,.F.);
#518=ORIENTED_EDGE('',*,*,#349,.F.);
#519=ORIENTED_EDGE('',*,*,#357,.T.);
#520=CYLINDRICAL_SURFACE('',#593,1.);
#521=CYLINDRICAL_SURFACE('',#597,1.);
#522=CYLINDRICAL_SURFACE('',#601,1.);
#523=CYLINDRICAL_SURFACE('',#605,0.999999977648258);
#524=CYLINDRICAL_SURFACE('',#609,1.24999997206032);
#525=CYLINDRICAL_SURFACE('',#625,1.24999935738742);
#526=CYLINDRICAL_SURFACE('',#633,1.24999997206032);
#527=CYLINDRICAL_SURFACE('',#636,1.25);
#528=CYLINDRICAL_SURFACE('',#640,27.5);
#529=CYLINDRICAL_SURFACE('',#642,30.);
#530=CYLINDRICAL_SURFACE('',#645,1.24999997206032);
#531=CYLINDRICAL_SURFACE('',#648,1.24999997206032);
#532=CYLINDRICAL_SURFACE('',#662,1.24999997206032);
#533=CYLINDRICAL_SURFACE('',#664,1.24999997206032);
#534=CYLINDRICAL_SURFACE('',#675,1.25);
#535=CYLINDRICAL_SURFACE('',#676,30.0000004470348);
#536=CYLINDRICAL_SURFACE('',#678,1.24999997206032);
#537=CYLINDRICAL_SURFACE('',#680,1.24999997206032);
#538=CYLINDRICAL_SURFACE('',#683,27.5);
#539=ADVANCED_FACE('',(#43),#520,.T.);
#540=ADVANCED_FACE('',(#44),#23,.T.);
#541=ADVANCED_FACE('',(#45),#521,.T.);
#542=ADVANCED_FACE('',(#46),#24,.T.);
#543=ADVANCED_FACE('',(#47),#522,.T.);
#544=ADVANCED_FACE('',(#48),#25,.T.);
#545=ADVANCED_FACE('',(#49),#523,.T.);
#546=ADVANCED_FACE('',(#50),#26,.T.);
#547=ADVANCED_FACE('',(#51),#524,.T.);
#548=ADVANCED_FACE('',(#52,#17),#27,.T.);
#549=ADVANCED_FACE('',(#53),#28,.T.);
#550=ADVANCED_FACE('',(#54),#29,.T.);
#551=ADVANCED_FACE('',(#55),#525,.T.);
#552=ADVANCED_FACE('',(#56,#18),#30,.T.);
#553=ADVANCED_FACE('',(#57),#31,.T.);
#554=ADVANCED_FACE('',(#58),#526,.T.);
#555=ADVANCED_FACE('',(#59,#19),#32,.T.);
#556=ADVANCED_FACE('',(#60),#527,.T.);
#557=ADVANCED_FACE('',(#61,#20),#33,.T.);
#558=ADVANCED_FACE('',(#62),#528,.F.);
#559=ADVANCED_FACE('',(#63),#529,.T.);
#560=ADVANCED_FACE('',(#64,#21),#34,.F.);
#561=ADVANCED_FACE('',(#65),#530,.F.);
#562=ADVANCED_FACE('',(#66),#531,.F.);
#563=ADVANCED_FACE('',(#67),#35,.T.);
#564=ADVANCED_FACE('',(#68),#36,.T.);
#565=ADVANCED_FACE('',(#69),#37,.T.);
#566=ADVANCED_FACE('',(#70),#532,.F.);
#567=ADVANCED_FACE('',(#71),#533,.F.);
#568=ADVANCED_FACE('',(#72),#38,.T.);
#569=ADVANCED_FACE('',(#73),#39,.T.);
#570=ADVANCED_FACE('',(#74),#40,.T.);
#571=ADVANCED_FACE('',(#75),#534,.F.);
#572=ADVANCED_FACE('',(#76),#535,.T.);
#573=ADVANCED_FACE('',(#77),#536,.F.);
#574=ADVANCED_FACE('',(#78),#537,.F.);
#575=ADVANCED_FACE('',(#79),#41,.T.);
#576=ADVANCED_FACE('',(#80),#538,.F.);
#577=ADVANCED_FACE('',(#81,#22),#42,.F.);
#578=CLOSED_SHELL('',(#539,#540,#541,#542,#543,#544,#545,#546,#547,#548,
#549,#550,#551,#552,#553,#554,#555,#556,#557,#558,#559,#560));
#579=CLOSED_SHELL('',(#561,#562,#563,#564,#565,#566,#567,#568,#569,#570,
#571,#572,#573,#574,#575,#576,#577));
#580=DERIVED_UNIT_ELEMENT(#582,1.);
#581=DERIVED_UNIT_ELEMENT(#1069,-3.);
#582=(
MASS_UNIT()
NAMED_UNIT(*)
SI_UNIT(.KILO.,.GRAM.)
);
#583=DERIVED_UNIT((#580,#581));
#584=MEASURE_REPRESENTATION_ITEM('density measure',
POSITIVE_RATIO_MEASURE(7850.),#583);
#585=PROPERTY_DEFINITION_REPRESENTATION(#590,#587);
#586=PROPERTY_DEFINITION_REPRESENTATION(#591,#588);
#587=REPRESENTATION('material name',(#589),#1066);
#588=REPRESENTATION('density',(#584),#1066);
#589=DESCRIPTIVE_REPRESENTATION_ITEM('Steel','Steel');
#590=PROPERTY_DEFINITION('material property','material name',#1076);
#591=PROPERTY_DEFINITION('material property','density of part',#1076);
#592=AXIS2_PLACEMENT_3D('',#901,#686,#687);
#593=AXIS2_PLACEMENT_3D('',#902,#688,#689);
#594=AXIS2_PLACEMENT_3D('',#904,#690,#691);
#595=AXIS2_PLACEMENT_3D('',#907,#693,#694);
#596=AXIS2_PLACEMENT_3D('',#908,#695,#696);
#597=AXIS2_PLACEMENT_3D('',#909,#697,#698);
#598=AXIS2_PLACEMENT_3D('',#911,#699,#700);
#599=AXIS2_PLACEMENT_3D('',#914,#702,#703);
#600=AXIS2_PLACEMENT_3D('',#915,#704,#705);
#601=AXIS2_PLACEMENT_3D('',#916,#706,#707);
#602=AXIS2_PLACEMENT_3D('',#918,#708,#709);
#603=AXIS2_PLACEMENT_3D('',#921,#711,#712);
#604=AXIS2_PLACEMENT_3D('',#922,#713,#714);
#605=AXIS2_PLACEMENT_3D('',#923,#715,#716);
#606=AXIS2_PLACEMENT_3D('',#925,#717,#718);
#607=AXIS2_PLACEMENT_3D('',#928,#720,#721);
#608=AXIS2_PLACEMENT_3D('',#929,#722,#723);
#609=AXIS2_PLACEMENT_3D('',#930,#724,#725);
#610=AXIS2_PLACEMENT_3D('',#932,#726,#727);
#611=AXIS2_PLACEMENT_3D('',#936,#729,#730);
#612=AXIS2_PLACEMENT_3D('',#937,#731,#732);
#613=AXIS2_PLACEMENT_3D('',#938,#733,#734);
#614=AXIS2_PLACEMENT_3D('',#939,#735,#736);
#615=AXIS2_PLACEMENT_3D('',#941,#737,#738);
#616=AXIS2_PLACEMENT_3D('',#943,#739,#740);
#617=AXIS2_PLACEMENT_3D('',#945,#741,#742);
#618=AXIS2_PLACEMENT_3D('',#946,#743,#744);
#619=AXIS2_PLACEMENT_3D('',#947,#745,#746);
#620=AXIS2_PLACEMENT_3D('',#949,#747,#748);
#621=AXIS2_PLACEMENT_3D('',#951,#749,#750);
#622=AXIS2_PLACEMENT_3D('',#953,#751,#752);
#623=AXIS2_PLACEMENT_3D('',#955,#753,#754);
#624=AXIS2_PLACEMENT_3D('',#956,#755,#756);
#625=AXIS2_PLACEMENT_3D('',#957,#757,#758);
#626=AXIS2_PLACEMENT_3D('',#959,#759,#760);
#627=AXIS2_PLACEMENT_3D('',#961,#762,#763);
#628=AXIS2_PLACEMENT_3D('',#962,#764,#765);
#629=AXIS2_PLACEMENT_3D('',#963,#766,#767);
#630=AXIS2_PLACEMENT_3D('',#964,#768,#769);
#631=AXIS2_PLACEMENT_3D('',#965,#770,#771);
#632=AXIS2_PLACEMENT_3D('',#966,#772,#773);
#633=AXIS2_PLACEMENT_3D('',#967,#774,#775);
#634=AXIS2_PLACEMENT_3D('',#969,#776,#777);
#635=AXIS2_PLACEMENT_3D('',#971,#779,#780);
#636=AXIS2_PLACEMENT_3D('',#972,#781,#782);
#637=AXIS2_PLACEMENT_3D('',#976,#784,#785);
#638=AXIS2_PLACEMENT_3D('',#978,#787,#788);
#639=AXIS2_PLACEMENT_3D('',#979,#789,#790);
#640=AXIS2_PLACEMENT_3D('',#980,#791,#792);
#641=AXIS2_PLACEMENT_3D('',#983,#794,#795);
#642=AXIS2_PLACEMENT_3D('',#984,#796,#797);
#643=AXIS2_PLACEMENT_3D('',#987,#799,#800);
#644=AXIS2_PLACEMENT_3D('',#988,#801,#802);
#645=AXIS2_PLACEMENT_3D('',#989,#803,#804);
#646=AXIS2_PLACEMENT_3D('',#994,#806,#807);
#647=AXIS2_PLACEMENT_3D('',#997,#809,#810);
#648=AXIS2_PLACEMENT_3D('',#998,#811,#812);
#649=AXIS2_PLACEMENT_3D('',#1000,#814,#815);
#650=AXIS2_PLACEMENT_3D('',#1002,#817,#818);
#651=AXIS2_PLACEMENT_3D('',#1003,#819,#820);
#652=AXIS2_PLACEMENT_3D('',#1004,#821,#822);
#653=AXIS2_PLACEMENT_3D('',#1006,#823,#824);
#654=AXIS2_PLACEMENT_3D('',#1008,#825,#826);
#655=AXIS2_PLACEMENT_3D('',#1009,#827,#828);
#656=AXIS2_PLACEMENT_3D('',#1010,#829,#830);
#657=AXIS2_PLACEMENT_3D('',#1012,#831,#832);
#658=AXIS2_PLACEMENT_3D('',#1014,#833,#834);
#659=AXIS2_PLACEMENT_3D('',#1016,#835,#836);
#660=AXIS2_PLACEMENT_3D('',#1018,#837,#838);
#661=AXIS2_PLACEMENT_3D('',#1019,#839,#840);
#662=AXIS2_PLACEMENT_3D('',#1020,#841,#842);
#663=AXIS2_PLACEMENT_3D('',#1024,#844,#845);
#664=AXIS2_PLACEMENT_3D('',#1026,#847,#848);
#665=AXIS2_PLACEMENT_3D('',#1028,#850,#851);
#666=AXIS2_PLACEMENT_3D('',#1030,#853,#854);
#667=AXIS2_PLACEMENT_3D('',#1031,#855,#856);
#668=AXIS2_PLACEMENT_3D('',#1032,#857,#858);
#669=AXIS2_PLACEMENT_3D('',#1033,#859,#860);
#670=AXIS2_PLACEMENT_3D('',#1034,#861,#862);
#671=AXIS2_PLACEMENT_3D('',#1035,#863,#864);
#672=AXIS2_PLACEMENT_3D('',#1036,#865,#866);
#673=AXIS2_PLACEMENT_3D('',#1039,#867,#868);
#674=AXIS2_PLACEMENT_3D('',#1040,#869,#870);
#675=AXIS2_PLACEMENT_3D('',#1041,#871,#872);
#676=AXIS2_PLACEMENT_3D('',#1044,#875,#876);
#677=AXIS2_PLACEMENT_3D('',#1047,#878,#879);
#678=AXIS2_PLACEMENT_3D('',#1051,#882,#883);
#679=AXIS2_PLACEMENT_3D('',#1054,#885,#886);
#680=AXIS2_PLACEMENT_3D('',#1055,#887,#888);
#681=AXIS2_PLACEMENT_3D('',#1057,#890,#891);
#682=AXIS2_PLACEMENT_3D('',#1058,#892,#893);
#683=AXIS2_PLACEMENT_3D('',#1059,#894,#895);
#684=AXIS2_PLACEMENT_3D('',#1062,#897,#898);
#685=AXIS2_PLACEMENT_3D('',#1063,#899,#900);
#686=DIRECTION('axis',(0.,0.,1.));
#687=DIRECTION('refdir',(1.,0.,0.));
#688=DIRECTION('center_axis',(0.,1.,0.));
#689=DIRECTION('ref_axis',(-1.,0.,0.));
#690=DIRECTION('center_axis',(0.,1.,0.));
#691=DIRECTION('ref_axis',(-1.,0.,0.));
#692=DIRECTION('',(0.,-1.,0.));
#693=DIRECTION('center_axis',(0.,-1.,0.));
#694=DIRECTION('ref_axis',(-1.,0.,0.));
#695=DIRECTION('center_axis',(0.,1.,0.));
#696=DIRECTION('ref_axis',(-1.,0.,0.));
#697=DIRECTION('center_axis',(0.,1.,0.));
#698=DIRECTION('ref_axis',(-1.,0.,0.));
#699=DIRECTION('center_axis',(0.,1.,0.));
#700=DIRECTION('ref_axis',(-1.,0.,0.));
#701=DIRECTION('',(0.,-1.,0.));
#702=DIRECTION('center_axis',(0.,-1.,0.));
#703=DIRECTION('ref_axis',(-1.,0.,0.));
#704=DIRECTION('center_axis',(0.,1.,0.));
#705=DIRECTION('ref_axis',(-1.,0.,0.));
#706=DIRECTION('center_axis',(0.,1.,0.));
#707=DIRECTION('ref_axis',(-1.,0.,0.));
#708=DIRECTION('center_axis',(0.,1.,0.));
#709=DIRECTION('ref_axis',(-1.,0.,0.));
#710=DIRECTION('',(0.,-1.,0.));
#711=DIRECTION('center_axis',(0.,-1.,0.));
#712=DIRECTION('ref_axis',(-1.,0.,0.));
#713=DIRECTION('center_axis',(0.,1.,0.));
#714=DIRECTION('ref_axis',(-1.,0.,0.));
#715=DIRECTION('center_axis',(0.,1.,0.));
#716=DIRECTION('ref_axis',(-1.,0.,0.));
#717=DIRECTION('center_axis',(0.,1.,0.));
#718=DIRECTION('ref_axis',(-1.,0.,0.));
#719=DIRECTION('',(0.,-1.,0.));
#720=DIRECTION('center_axis',(0.,-1.,0.));
#721=DIRECTION('ref_axis',(-1.,0.,0.));
#722=DIRECTION('center_axis',(0.,1.,0.));
#723=DIRECTION('ref_axis',(-1.,0.,0.));
#724=DIRECTION('center_axis',(0.,1.,0.));
#725=DIRECTION('ref_axis',(-1.,0.,0.));
#726=DIRECTION('center_axis',(0.,1.,0.));
#727=DIRECTION('ref_axis',(-1.,0.,0.));
#728=DIRECTION('',(0.,-1.,0.));
#729=DIRECTION('center_axis',(0.,-1.,0.));
#730=DIRECTION('ref_axis',(-1.,0.,0.));
#731=DIRECTION('center_axis',(0.,-1.,0.));
#732=DIRECTION('ref_axis',(-1.,0.,0.));
#733=DIRECTION('center_axis',(0.,1.,0.));
#734=DIRECTION('ref_axis',(-1.,0.,0.));
#735=DIRECTION('center_axis',(0.,1.,0.));
#736=DIRECTION('ref_axis',(1.,0.,0.));
#737=DIRECTION('center_axis',(0.,-1.,0.));
#738=DIRECTION('ref_axis',(-1.,0.,0.));
#739=DIRECTION('center_axis',(0.,-1.,0.));
#740=DIRECTION('ref_axis',(-1.,0.,0.));
#741=DIRECTION('center_axis',(0.,-1.,0.));
#742=DIRECTION('ref_axis',(-1.,0.,0.));
#743=DIRECTION('center_axis',(0.,1.,0.));
#744=DIRECTION('ref_axis',(1.,0.,0.));
#745=DIRECTION('center_axis',(0.,1.,0.));
#746=DIRECTION('ref_axis',(1.,0.,0.));
#747=DIRECTION('center_axis',(0.,1.,0.));
#748=DIRECTION('ref_axis',(1.,0.,0.));
#749=DIRECTION('center_axis',(0.,-1.,0.));
#750=DIRECTION('ref_axis',(-1.,0.,0.));
#751=DIRECTION('center_axis',(0.,1.,0.));
#752=DIRECTION('ref_axis',(1.,0.,0.));
#753=DIRECTION('center_axis',(0.,-1.,0.));
#754=DIRECTION('ref_axis',(-1.,0.,0.));
#755=DIRECTION('center_axis',(0.,-1.,0.));
#756=DIRECTION('ref_axis',(-1.,0.,0.));
#757=DIRECTION('center_axis',(0.,1.,0.));
#758=DIRECTION('ref_axis',(-1.,0.,0.));
#759=DIRECTION('center_axis',(0.,1.,0.));
#760=DIRECTION('ref_axis',(-1.,0.,0.));
#761=DIRECTION('',(0.,-1.,0.));
#762=DIRECTION('center_axis',(0.,-1.,0.));
#763=DIRECTION('ref_axis',(-1.,0.,0.));
#764=DIRECTION('center_axis',(0.,1.,0.));
#765=DIRECTION('ref_axis',(-1.,0.,0.));
#766=DIRECTION('center_axis',(0.,1.,0.));
#767=DIRECTION('ref_axis',(1.,0.,0.));
#768=DIRECTION('center_axis',(0.,1.,0.));
#769=DIRECTION('ref_axis',(1.,0.,0.));
#770=DIRECTION('center_axis',(0.,-1.,0.));
#771=DIRECTION('ref_axis',(-1.,0.,0.));
#772=DIRECTION('center_axis',(0.,-1.,0.));
#773=DIRECTION('ref_axis',(-1.,0.,0.));
#774=DIRECTION('center_axis',(0.,1.,0.));
#775=DIRECTION('ref_axis',(-1.,0.,0.));
#776=DIRECTION('center_axis',(0.,1.,0.));
#777=DIRECTION('ref_axis',(-1.,0.,0.));
#778=DIRECTION('',(0.,-1.,0.));
#779=DIRECTION('center_axis',(0.,1.,0.));
#780=DIRECTION('ref_axis',(-1.,0.,0.));
#781=DIRECTION('center_axis',(0.,1.,0.));
#782=DIRECTION('ref_axis',(-0.00033092474881026,0.,0.999999945244404));
#783=DIRECTION('',(0.,1.,0.));
#784=DIRECTION('center_axis',(0.,1.,0.));
#785=DIRECTION('ref_axis',(-1.,0.,0.));
#786=DIRECTION('',(0.,1.,0.));
#787=DIRECTION('center_axis',(0.,1.,0.));
#788=DIRECTION('ref_axis',(-1.,0.,0.));
#789=DIRECTION('center_axis',(0.,1.,0.));
#790=DIRECTION('ref_axis',(-1.,0.,0.));
#791=DIRECTION('center_axis',(0.,-1.,0.));
#792=DIRECTION('ref_axis',(-1.,0.,0.));
#793=DIRECTION('',(0.,-1.,0.));
#794=DIRECTION('center_axis',(0.,1.,0.));
#795=DIRECTION('ref_axis',(-1.,0.,0.));
#796=DIRECTION('center_axis',(0.,1.,0.));
#797=DIRECTION('ref_axis',(1.,0.,0.));
#798=DIRECTION('',(0.,-1.,0.));
#799=DIRECTION('center_axis',(0.,1.,0.));
#800=DIRECTION('ref_axis',(1.,0.,0.));
#801=DIRECTION('center_axis',(0.,1.,0.));
#802=DIRECTION('ref_axis',(1.,0.,0.));
#803=DIRECTION('center_axis',(0.,-1.,0.));
#804=DIRECTION('ref_axis',(0.999999999999995,0.,-9.71814860920642E-8));
#805=DIRECTION('',(0.,-1.,0.));
#806=DIRECTION('center_axis',(0.,-1.,0.));
#807=DIRECTION('ref_axis',(-1.,0.,0.));
#808=DIRECTION('',(0.,-1.,0.));
#809=DIRECTION('center_axis',(0.,-1.,0.));
#810=DIRECTION('ref_axis',(-1.,0.,0.));
#811=DIRECTION('center_axis',(0.,-1.,0.));
#812=DIRECTION('ref_axis',(-1.,0.,0.));
#813=DIRECTION('',(0.,-1.,0.));
#814=DIRECTION('center_axis',(0.,-1.,0.));
#815=DIRECTION('ref_axis',(-1.,0.,0.));
#816=DIRECTION('',(0.,-1.,0.));
#817=DIRECTION('center_axis',(0.,-1.,0.));
#818=DIRECTION('ref_axis',(-1.,0.,0.));
#819=DIRECTION('center_axis',(0.,1.,0.));
#820=DIRECTION('ref_axis',(-1.,0.,0.));
#821=DIRECTION('center_axis',(0.,1.,0.));
#822=DIRECTION('ref_axis',(1.,0.,0.));
#823=DIRECTION('center_axis',(0.,1.,0.));
#824=DIRECTION('ref_axis',(1.,0.,0.));
#825=DIRECTION('center_axis',(0.,-1.,0.));
#826=DIRECTION('ref_axis',(-1.,0.,0.));
#827=DIRECTION('center_axis',(0.,-1.,0.));
#828=DIRECTION('ref_axis',(-1.,0.,0.));
#829=DIRECTION('center_axis',(0.,1.,0.));
#830=DIRECTION('ref_axis',(1.,0.,0.));
#831=DIRECTION('center_axis',(0.,-1.,0.));
#832=DIRECTION('ref_axis',(-1.,0.,0.));
#833=DIRECTION('center_axis',(0.,-1.,0.));
#834=DIRECTION('ref_axis',(-1.,0.,0.));
#835=DIRECTION('center_axis',(0.,1.,0.));
#836=DIRECTION('ref_axis',(1.,0.,0.));
#837=DIRECTION('center_axis',(0.,-1.,0.));
#838=DIRECTION('ref_axis',(-1.,0.,0.));
#839=DIRECTION('center_axis',(0.,1.,0.));
#840=DIRECTION('ref_axis',(1.,0.,0.));
#841=DIRECTION('center_axis',(0.,-1.,0.));
#842=DIRECTION('ref_axis',(0.999999999999995,0.,9.71814858471348E-8));
#843=DIRECTION('',(0.,-1.,0.));
#844=DIRECTION('center_axis',(0.,-1.,0.));
#845=DIRECTION('ref_axis',(-1.,0.,0.));
#846=DIRECTION('',(0.,-1.,0.));
#847=DIRECTION('center_axis',(0.,-1.,0.));
#848=DIRECTION('ref_axis',(-1.,0.,0.));
#849=DIRECTION('',(0.,-1.,0.));
#850=DIRECTION('center_axis',(0.,-1.,0.));
#851=DIRECTION('ref_axis',(-1.,0.,0.));
#852=DIRECTION('',(0.,-1.,0.));
#853=DIRECTION('center_axis',(0.,-1.,0.));
#854=DIRECTION('ref_axis',(-1.,0.,0.));
#855=DIRECTION('center_axis',(0.,1.,0.));
#856=DIRECTION('ref_axis',(-1.,0.,0.));
#857=DIRECTION('center_axis',(0.,1.,0.));
#858=DIRECTION('ref_axis',(1.,0.,0.));
#859=DIRECTION('center_axis',(0.,-1.,0.));
#860=DIRECTION('ref_axis',(-1.,0.,0.));
#861=DIRECTION('center_axis',(0.,-1.,0.));
#862=DIRECTION('ref_axis',(-1.,0.,0.));
#863=DIRECTION('center_axis',(0.,1.,0.));
#864=DIRECTION('ref_axis',(1.,0.,0.));
#865=DIRECTION('center_axis',(0.,1.,0.));
#866=DIRECTION('ref_axis',(-1.,0.,0.));
#867=DIRECTION('center_axis',(0.,-1.,0.));
#868=DIRECTION('ref_axis',(1.,0.,0.));
#869=DIRECTION('center_axis',(0.,-1.,0.));
#870=DIRECTION('ref_axis',(-1.,0.,0.));
#871=DIRECTION('center_axis',(0.,-1.,0.));
#872=DIRECTION('ref_axis',(-1.,0.,0.));
#873=DIRECTION('',(0.,-1.,0.));
#874=DIRECTION('',(0.,1.,0.));
#875=DIRECTION('center_axis',(0.,1.,0.));
#876=DIRECTION('ref_axis',(9.71814882512779E-8,0.,-0.999999999999995));
#877=DIRECTION('',(0.,-1.,0.));
#878=DIRECTION('center_axis',(0.,1.,0.));
#879=DIRECTION('ref_axis',(1.,0.,0.));
#880=DIRECTION('',(0.,-1.,0.));
#881=DIRECTION('',(0.,-1.,0.));
#882=DIRECTION('center_axis',(0.,-1.,0.));
#883=DIRECTION('ref_axis',(-1.,0.,0.));
#884=DIRECTION('',(0.,-1.,0.));
#885=DIRECTION('center_axis',(0.,-1.,0.));
#886=DIRECTION('ref_axis',(-1.,0.,0.));
#887=DIRECTION('center_axis',(0.,-1.,0.));
#888=DIRECTION('ref_axis',(-1.,0.,0.));
#889=DIRECTION('',(0.,-1.,0.));
#890=DIRECTION('center_axis',(0.,-1.,0.));
#891=DIRECTION('ref_axis',(-1.,0.,0.));
#892=DIRECTION('center_axis',(0.,1.,0.));
#893=DIRECTION('ref_axis',(-1.,0.,0.));
#894=DIRECTION('center_axis',(0.,-1.,0.));
#895=DIRECTION('ref_axis',(1.,0.,-1.22464679914735E-16));
#896=DIRECTION('',(0.,-1.,0.));
#897=DIRECTION('center_axis',(0.,1.,0.));
#898=DIRECTION('ref_axis',(-1.,0.,0.));
#899=DIRECTION('center_axis',(0.,1.,0.));
#900=DIRECTION('ref_axis',(1.,0.,0.));
#901=CARTESIAN_POINT('',(0.,0.,0.));
#902=CARTESIAN_POINT('Origin',(-28.7499993573874,60.,0.));
#903=CARTESIAN_POINT('',(-27.7499993573874,68.,-1.22464679914735E-16));
#904=CARTESIAN_POINT('Origin',(-28.7499993573874,68.,0.));
#905=CARTESIAN_POINT('',(-27.7499993573874,60.,-1.22464679914735E-16));
#906=CARTESIAN_POINT('',(-27.7499993573874,60.,-1.22464679914735E-16));
#907=CARTESIAN_POINT('Origin',(-28.7499993573874,60.,0.));
#908=CARTESIAN_POINT('Origin',(-28.7499993573874,68.,0.));
#909=CARTESIAN_POINT('Origin',(0.00951434750950678,60.,-28.750787060919));
#910=CARTESIAN_POINT('',(1.00951434750951,68.,-28.750787060919));
#911=CARTESIAN_POINT('Origin',(0.00951434750950678,68.,-28.750787060919));
#912=CARTESIAN_POINT('',(1.00951434750951,60.,-28.750787060919));
#913=CARTESIAN_POINT('',(1.00951434750951,60.,-28.750787060919));
#914=CARTESIAN_POINT('Origin',(0.00951434750950678,60.,-28.750787060919));
#915=CARTESIAN_POINT('Origin',(0.00951434750950678,68.,-28.750787060919));
#916=CARTESIAN_POINT('Origin',(0.,60.,28.7499993573874));
#917=CARTESIAN_POINT('',(1.,68.,28.7499993573874));
#918=CARTESIAN_POINT('Origin',(0.,68.,28.7499993573874));
#919=CARTESIAN_POINT('',(1.,60.,28.7499993573874));
#920=CARTESIAN_POINT('',(1.,60.,28.7499993573874));
#921=CARTESIAN_POINT('Origin',(0.,60.,28.7499993573874));
#922=CARTESIAN_POINT('Origin',(0.,68.,28.7499993573874));
#923=CARTESIAN_POINT('Origin',(28.7499993573874,60.,0.));
#924=CARTESIAN_POINT('',(29.7499993350357,68.,-1.22464677177436E-16));
#925=CARTESIAN_POINT('Origin',(28.7499993573874,68.,0.));
#926=CARTESIAN_POINT('',(29.7499993350357,60.,-1.22464677177436E-16));
#927=CARTESIAN_POINT('',(29.7499993350357,60.,-1.22464677177436E-16));
#928=CARTESIAN_POINT('Origin',(28.7499993573874,60.,0.));
#929=CARTESIAN_POINT('Origin',(28.7499993573874,68.,0.));
#930=CARTESIAN_POINT('Origin',(28.7499993573874,10.,0.));
#931=CARTESIAN_POINT('',(29.9999993294477,60.,-1.53080846471796E-16));
#932=CARTESIAN_POINT('Origin',(28.7499993573874,60.,0.));
#933=CARTESIAN_POINT('',(29.9999993294477,10.,-1.53080846471796E-16));
#934=CARTESIAN_POINT('',(29.9999993294477,10.,-1.53080846471796E-16));
#935=CARTESIAN_POINT('',(27.5,10.,0.));
#936=CARTESIAN_POINT('Origin',(28.7499993573874,10.,0.));
#937=CARTESIAN_POINT('Origin',(28.7499993573874,10.,0.));
#938=CARTESIAN_POINT('Origin',(28.7499993573874,60.,0.));
#939=CARTESIAN_POINT('Origin',(0.,10.,0.));
#940=CARTESIAN_POINT('',(0.,10.,27.5));
#941=CARTESIAN_POINT('Origin',(0.,10.,0.));
#942=CARTESIAN_POINT('',(1.24999997206032,10.,28.7499993573874));
#943=CARTESIAN_POINT('Origin',(0.,10.,28.7499993573874));
#944=CARTESIAN_POINT('',(0.,10.,30.));
#945=CARTESIAN_POINT('Origin',(0.,10.,28.7499993573874));
#946=CARTESIAN_POINT('Origin',(0.,10.,0.));
#947=CARTESIAN_POINT('Origin',(0.,10.,0.));
#948=CARTESIAN_POINT('',(0.0552775092784686,10.,-29.9999490732396));
#949=CARTESIAN_POINT('Origin',(0.,10.,0.));
#950=CARTESIAN_POINT('',(-0.035422047031267,10.,-29.9999790879691));
#951=CARTESIAN_POINT('Origin',(0.00951434750950678,10.,-28.750787060919));
#952=CARTESIAN_POINT('',(-30.,10.,0.));
#953=CARTESIAN_POINT('Origin',(0.,10.,0.));
#954=CARTESIAN_POINT('',(-27.5,10.,-1.53080771196076E-16));
#955=CARTESIAN_POINT('Origin',(-28.7499993573874,10.,0.));
#956=CARTESIAN_POINT('Origin',(0.,10.,0.));
#957=CARTESIAN_POINT('Origin',(-28.7499993573874,10.,0.));
#958=CARTESIAN_POINT('',(-27.5,60.,-1.53080771196076E-16));
#959=CARTESIAN_POINT('Origin',(-28.7499993573874,60.,0.));
#960=CARTESIAN_POINT('',(-27.5,10.,-1.53080771196076E-16));
#961=CARTESIAN_POINT('Origin',(-28.7499993573874,10.,0.));
#962=CARTESIAN_POINT('Origin',(-28.7499993573874,60.,0.));
#963=CARTESIAN_POINT('Origin',(0.,10.,0.));
#964=CARTESIAN_POINT('Origin',(0.,10.,0.));
#965=CARTESIAN_POINT('Origin',(0.,10.,28.7499993573874));
#966=CARTESIAN_POINT('Origin',(0.,10.,0.));
#967=CARTESIAN_POINT('Origin',(0.,10.,28.7499993573874));
#968=CARTESIAN_POINT('',(1.24999997206032,60.,28.7499993573874));
#969=CARTESIAN_POINT('Origin',(0.,60.,28.7499993573874));
#970=CARTESIAN_POINT('',(1.24999997206032,10.,28.7499993573874));
#971=CARTESIAN_POINT('Origin',(0.,60.,28.7499993573874));
#972=CARTESIAN_POINT('Origin',(0.00951434750950678,10.,-28.750787060919));
#973=CARTESIAN_POINT('',(0.0552775092784686,60.,-29.9999490732396));
#974=CARTESIAN_POINT('',(0.0552775092784686,10.,-29.9999490732396));
#975=CARTESIAN_POINT('',(-0.035422047031267,60.,-29.9999790879691));
#976=CARTESIAN_POINT('Origin',(0.00951434750950678,60.,-28.750787060919));
#977=CARTESIAN_POINT('',(-0.035422047031267,10.,-29.9999790879691));
#978=CARTESIAN_POINT('Origin',(0.00951434750950692,60.,-28.7503935304595));
#979=CARTESIAN_POINT('Origin',(0.,60.,0.));
#980=CARTESIAN_POINT('Origin',(0.,10.,0.));
#981=CARTESIAN_POINT('',(27.5,0.,-3.36777869765522E-15));
#982=CARTESIAN_POINT('',(27.5,10.,3.36777869765522E-15));
#983=CARTESIAN_POINT('Origin',(0.,0.,0.));
#984=CARTESIAN_POINT('Origin',(0.,0.,0.));
#985=CARTESIAN_POINT('',(-30.,0.,3.67394039744206E-15));
#986=CARTESIAN_POINT('',(-30.,0.,3.67394039744206E-15));
#987=CARTESIAN_POINT('Origin',(0.,0.,0.));
#988=CARTESIAN_POINT('Origin',(0.,0.,0.));
#989=CARTESIAN_POINT('Origin',(74.9999983236194,10.,-28.7499993573874));
#990=CARTESIAN_POINT('',(74.9999982021424,10.,-30.0000004470347));
#991=CARTESIAN_POINT('',(74.9999982021425,2.,-29.9999993294477));
#992=CARTESIAN_POINT('',(74.9999982021425,10.,-29.9999993294477));
#993=CARTESIAN_POINT('',(74.9999984450962,2.,-27.4999993853271));
#994=CARTESIAN_POINT('Origin',(74.9999983236194,2.,-28.7499993573874));
#995=CARTESIAN_POINT('',(74.9999984450962,10.,-27.4999999999999));
#996=CARTESIAN_POINT('',(74.9999984450962,10.,-27.4999993853271));
#997=CARTESIAN_POINT('Origin',(74.9999983236194,10.,-28.7499993573874));
#998=CARTESIAN_POINT('Origin',(74.9999983236194,10.,-28.7499993573874));
#999=CARTESIAN_POINT('',(74.9999982021425,10.,-29.9999993294477));
#1000=CARTESIAN_POINT('Origin',(74.9999983236194,10.,-28.7499993573874));
#1001=CARTESIAN_POINT('',(74.9999984450962,10.,-27.4999993853271));
#1002=CARTESIAN_POINT('Origin',(74.9999983236194,2.,-28.7499993573874));
#1003=CARTESIAN_POINT('Origin',(74.9999983236194,2.,-28.7499993573874));
#1004=CARTESIAN_POINT('Origin',(75.0000011175871,10.,0.));
#1005=CARTESIAN_POINT('',(45.0000006705523,10.,3.67394045218804E-15));
#1006=CARTESIAN_POINT('Origin',(75.0000011175871,10.,0.));
#1007=CARTESIAN_POINT('',(47.4999989382923,10.,-1.53080846471796E-16));
#1008=CARTESIAN_POINT('Origin',(46.2499989662319,10.,0.));
#1009=CARTESIAN_POINT('Origin',(75.0000011175871,10.,0.));
#1010=CARTESIAN_POINT('Origin',(75.0000011175871,10.,0.));
#1011=CARTESIAN_POINT('',(74.9999984450962,10.,27.4999999999999));
#1012=CARTESIAN_POINT('Origin',(75.0000011175871,10.,0.));
#1013=CARTESIAN_POINT('',(74.9999982021425,10.,29.9999993294477));
#1014=CARTESIAN_POINT('Origin',(74.9999983236194,10.,28.7499993573874));
#1015=CARTESIAN_POINT('',(104.999996014791,10.,0.0182480093417299));
#1016=CARTESIAN_POINT('Origin',(75.0000011175871,10.,0.));
#1017=CARTESIAN_POINT('',(104.999998849371,10.,-0.0127638190940068));
#1018=CARTESIAN_POINT('Origin',(103.750093614353,10.,0.00262784993769694));
#1019=CARTESIAN_POINT('Origin',(75.0000011175871,10.,0.));
#1020=CARTESIAN_POINT('Origin',(74.9999983236194,10.,28.7499993573874));
#1021=CARTESIAN_POINT('',(74.9999984450962,2.,27.4999993853271));
#1022=CARTESIAN_POINT('',(74.9999984450962,10.,27.4999993853271));
#1023=CARTESIAN_POINT('',(74.9999982021425,2.,29.9999993294477));
#1024=CARTESIAN_POINT('Origin',(74.9999983236194,2.,28.7499993573874));
#1025=CARTESIAN_POINT('',(74.9999982021425,10.,29.9999993294477));
#1026=CARTESIAN_POINT('Origin',(74.9999983236194,10.,28.7499993573874));
#1027=CARTESIAN_POINT('',(74.9999984450962,10.,27.4999993853271));
#1028=CARTESIAN_POINT('Origin',(74.9999983236194,10.,28.7499993573874));
#1029=CARTESIAN_POINT('',(74.9999982021425,10.,29.9999993294477));
#1030=CARTESIAN_POINT('Origin',(74.9999983236194,2.,28.7499993573874));
#1031=CARTESIAN_POINT('Origin',(74.9999983236194,2.,28.7499993573874));
#1032=CARTESIAN_POINT('Origin',(75.0000011175871,10.,0.));
#1033=CARTESIAN_POINT('Origin',(75.0000011175871,10.,0.));
#1034=CARTESIAN_POINT('Origin',(46.2499989662319,10.,0.));
#1035=CARTESIAN_POINT('Origin',(75.0000011175871,10.,0.));
#1036=CARTESIAN_POINT('Origin',(103.750093614353,2.,0.00262784993769694));
#1037=CARTESIAN_POINT('',(104.999998849371,2.,-0.012763819094292));
#1038=CARTESIAN_POINT('',(104.999996014791,2.,0.0182480093420151));
#1039=CARTESIAN_POINT('Origin',(75.0000011175871,2.,0.));
#1040=CARTESIAN_POINT('Origin',(103.750093614353,2.,0.00262784993769694));
#1041=CARTESIAN_POINT('Origin',(103.750093614353,10.,0.00262784993769694));
#1042=CARTESIAN_POINT('',(104.999998849371,10.,-0.012763819094292));
#1043=CARTESIAN_POINT('',(104.999996014791,10.,0.0182480093420151));
#1044=CARTESIAN_POINT('Origin',(75.0000011175871,0.,0.));
#1045=CARTESIAN_POINT('',(74.9999982021424,0.,30.0000004470347));
#1046=CARTESIAN_POINT('',(74.9999982021424,0.,30.0000004470347));
#1047=CARTESIAN_POINT('Origin',(75.0000011175871,0.,0.));
#1048=CARTESIAN_POINT('',(44.9999989941716,2.,0.));
#1049=CARTESIAN_POINT('',(44.9999989941716,10.,0.));
#1050=CARTESIAN_POINT('',(44.9999989941716,10.,0.));
#1051=CARTESIAN_POINT('Origin',(46.2499989662319,10.,0.));
#1052=CARTESIAN_POINT('',(47.4999989382923,2.,-1.53080846471796E-16));
#1053=CARTESIAN_POINT('',(47.4999989382923,10.,0.));
#1054=CARTESIAN_POINT('Origin',(46.2499989662319,2.,0.));
#1055=CARTESIAN_POINT('Origin',(46.2499989662319,10.,0.));
#1056=CARTESIAN_POINT('',(47.4999989382923,10.,0.));
#1057=CARTESIAN_POINT('Origin',(46.2499989662319,2.,0.));
#1058=CARTESIAN_POINT('Origin',(46.2499989662319,2.,0.));
#1059=CARTESIAN_POINT('Origin',(75.0000011175871,10.,0.));
#1060=CARTESIAN_POINT('',(47.5000011175871,0.,0.));
#1061=CARTESIAN_POINT('',(47.5000011175871,10.,0.));
#1062=CARTESIAN_POINT('Origin',(75.0000011175871,0.,0.));
#1063=CARTESIAN_POINT('Origin',(75.0000011175871,0.,0.));
#1064=UNCERTAINTY_MEASURE_WITH_UNIT(LENGTH_MEASURE(0.01),#1068,
'DISTANCE_ACCURACY_VALUE',
'Maximum model space distance between geometric entities at asserted c
onnectivities');
#1065=UNCERTAINTY_MEASURE_WITH_UNIT(LENGTH_MEASURE(0.01),#1068,
'DISTANCE_ACCURACY_VALUE',
'Maximum model space distance between geometric entities at asserted c
onnectivities');
#1066=(
GEOMETRIC_REPRESENTATION_CONTEXT(3)
GLOBAL_UNCERTAINTY_ASSIGNED_CONTEXT((#1064))
GLOBAL_UNIT_ASSIGNED_CONTEXT((#1068,#1070,#1071))
REPRESENTATION_CONTEXT('','3D')
);
#1067=(
GEOMETRIC_REPRESENTATION_CONTEXT(3)
GLOBAL_UNCERTAINTY_ASSIGNED_CONTEXT((#1065))
GLOBAL_UNIT_ASSIGNED_CONTEXT((#1068,#1070,#1071))
REPRESENTATION_CONTEXT('','3D')
);
#1068=(
LENGTH_UNIT()
NAMED_UNIT(*)
SI_UNIT(.MILLI.,.METRE.)
);
#1069=(
LENGTH_UNIT()
NAMED_UNIT(*)
SI_UNIT($,.METRE.)
);
#1070=(
NAMED_UNIT(*)
PLANE_ANGLE_UNIT()
SI_UNIT($,.RADIAN.)
);
#1071=(
NAMED_UNIT(*)
SI_UNIT($,.STERADIAN.)
SOLID_ANGLE_UNIT()
);
#1072=SHAPE_DEFINITION_REPRESENTATION(#1073,#1074);
#1073=PRODUCT_DEFINITION_SHAPE('',$,#1076);
#1074=SHAPE_REPRESENTATION('',(#592),#1066);
#1075=PRODUCT_DEFINITION_CONTEXT('part definition',#1080,'design');
#1076=PRODUCT_DEFINITION('2026-07-12-01-12-52-361','Avionics Bay',#1077,
#1075);
#1077=PRODUCT_DEFINITION_FORMATION('',$,#1082);
#1078=PRODUCT_RELATED_PRODUCT_CATEGORY('Avionics Bay','Avionics Bay',(#1082));
#1079=APPLICATION_PROTOCOL_DEFINITION('international standard',
'automotive_design',2009,#1080);
#1080=APPLICATION_CONTEXT(
'Core Data for Automotive Mechanical Design Process');
#1081=PRODUCT_CONTEXT('part definition',#1080,'mechanical');
#1082=PRODUCT('2026-07-12-01-12-52-361','Avionics Bay',$,(#1081));
#1083=PRESENTATION_STYLE_ASSIGNMENT((#1084));
#1084=SURFACE_STYLE_USAGE(.BOTH.,#1085);
#1085=SURFACE_SIDE_STYLE('',(#1086));
#1086=SURFACE_STYLE_FILL_AREA(#1087);
#1087=FILL_AREA_STYLE('Steel - Satin',(#1088));
#1088=FILL_AREA_STYLE_COLOUR('Steel - Satin',#1089);
#1089=COLOUR_RGB('Steel - Satin',0.627450980392157,0.627450980392157,0.627450980392157);
ENDSEC;
END-ISO-10303-21;
